<svg xmlns="http://www.w3.org/2000/svg" xmlns:xlink="http://www.w3.org/1999/xlink" viewBox="2724 1499.49 429.117 55.91">
  <defs>
    <style>
      .cls-1 {
        fill: #d6d6d6;
      }

      .cls-2 {
        fill: #c38d9e;
      }

      .cls-3, .cls-4 {
        fill: #fff;
      }

      .cls-3 {
        font-size: 14px;
        font-family: HelveticaNeue-Medium, Helvetica Neue;
        font-weight: 500;
      }

      .cls-5 {
        filter: url(#Path_24);
      }

      .cls-6 {
        filter: url(#Path_25);
      }
    </style>
    <filter id="Path_25" x="2915.93" y="1499.49" width="237.188" height="55.91" filterUnits="userSpaceOnUse">
      <feOffset dy="3" input="SourceAlpha"/>
      <feGaussianBlur stdDeviation="3" result="blur"/>
      <feFlood flood-opacity="0.161"/>
      <feComposite operator="in" in2="blur"/>
      <feComposite in="SourceGraphic"/>
    </filter>
    <filter id="Path_24" x="2750.531" y="1499.49" width="237.61" height="55.91" filterUnits="userSpaceOnUse">
      <feOffset dy="3" input="SourceAlpha"/>
      <feGaussianBlur stdDeviation="3" result="blur-2"/>
      <feFlood flood-opacity="0.161"/>
      <feComposite operator="in" in2="blur-2"/>
      <feComposite in="SourceGraphic"/>
    </filter>
  </defs>
  <g id="Symbol_8_1" data-name="Symbol 8 – 1" transform="translate(2151 1208)">
    <g class="cls-6" transform="matrix(1, 0, 0, 1, -2151, -1208)">
      <path id="Path_25-2" data-name="Path 25" class="cls-1" d="M0,0H194.349l20,13.212s4.843,2.976,4.843,4.862c0,1.791-4.843,4.788-4.843,4.788L191.306,37.91H0Z" transform="translate(2924.93 1505.49)"/>
    </g>
    <g id="Symbol_7_1" data-name="Symbol 7 – 1" transform="translate(3 -3.51)">
      <g class="cls-5" transform="matrix(1, 0, 0, 1, -2154, -1204.49)">
        <path id="Path_24-2" data-name="Path 24" class="cls-2" d="M0,0H198.307l17.13,13.776s4.173,3.15,4.173,5.036c0,1.791-4.173,4.615-4.173,4.615L195.2,37.91H0Z" transform="translate(2759.53 1505.49)"/>
      </g>
    </g>
    
  </g>
</svg>
